<?xml version="1.0" encoding="UTF-8"?>
<svg width="34px" height="34px" viewBox="0 0 34 34" version="1.1" xmlns="http://www.w3.org/2000/svg" xmlns:xlink="http://www.w3.org/1999/xlink">
    <title>编组 40备份</title>
    <g id="页面-1" stroke="none" stroke-width="1" fill="none" fill-rule="evenodd">
        <g id="编组-40备份">
            <rect id="矩形" stroke="#979797" fill="#D8D8D8" opacity="0" x="0.5" y="0.5" width="33" height="33"></rect>
            <g id="编组备份" transform="translate(3.000000, 6.000000)" fill="#05A17E" fill-rule="nonzero">
                <path d="M22.5848705,4.41926295 L22.6266524,10.2170069 L23.9088705,10.216263 L23.9090909,10.279476 L15.2048705,10.279263 L15.1638705,4.41926295 L22.5848705,4.41926295 Z" id="形状结合备份-2" fill-opacity="0.2"></path>
                <path d="M17.6586481,0 C23.370019,0 28,4.90072624 28,10.9460784 C28,16.9914306 23.370019,21.8921569 17.6586481,21.8921569 L17.6586481,21.8921569 L11.0649216,21.8921569 L11.034606,16.068098 L16.5360765,16.0686275 L16.504606,10.245098 L11.0036984,10.245 L11.034606,16.068098 L11.003606,10.245098 L11.0036984,10.245 L10.9496984,0 Z M17.6586481,5.82352941 L16.4821792,5.82352941 L16.5360765,16.0686275 L17.6586481,16.0686275 C20.3314571,16.0686275 22.498197,13.7751841 22.498197,10.9460784 C22.498197,8.11697273 20.3314571,5.82352941 17.6586481,5.82352941 L17.6586481,5.82352941 Z" id="形状结合"></path>
                <path d="M5.501,4.42156863 L5.53247046,10.245098 L0.031,10.2445686 L0,4.42156863 L5.501,4.42156863 Z" id="形状结合备份-3" fill-opacity="0.2"></path>
                <path d="M5.501,16.1764706 L5.53247046,22 L0.031,21.9994706 L0,16.1764706 L5.501,16.1764706 Z" id="形状结合备份-4" fill-opacity="0.2"></path>
                <path d="M11.002803,10.245098 L11.0342735,16.0686275 L5.532803,16.068098 L5.501803,10.245098 L11.002803,10.245098 Z" id="形状结合备份" transform="translate(8.268038, 13.156863) scale(-1, -1) translate(-8.268038, -13.156863) "></path>
            </g>
        </g>
    </g>
</svg>